<svg width="320" height="320" viewBox="0 0 320 320" fill="none" xmlns="http://www.w3.org/2000/svg">
<path d="M266.667 53.3333H53.3334C38.6058 53.3333 26.6667 65.2724 26.6667 80V240C26.6667 254.728 38.6058 266.667 53.3334 266.667H266.667C281.394 266.667 293.333 254.728 293.333 240V80C293.333 65.2724 281.394 53.3333 266.667 53.3333Z" fill="url(#paint0_linear_107_2)"/>
<path d="M283.333 59.3333C278.624 55.4927 272.744 53.3758 266.667 53.3333H53.3333C47.2564 53.3758 41.3762 55.4927 36.6666 59.3333C35.1413 60.5936 33.9155 62.1776 33.0782 63.9703C32.241 65.7631 31.8132 67.7197 31.826 69.6983C31.8387 71.6769 32.2917 73.6279 33.152 75.4097C34.0123 77.1915 35.2585 78.7595 36.8 80L143.467 163.867C148.175 167.587 154 169.611 160 169.611C166 169.611 171.825 167.587 176.533 163.867L283.2 80C284.757 78.7507 286.014 77.1675 286.878 75.3675C287.741 73.5675 288.19 71.5965 288.19 69.6C288.19 67.6035 287.741 65.6325 286.878 63.8325C286.014 62.0325 284.757 60.4494 283.2 59.2L283.333 59.3333Z" fill="#D8D8D8"/>
<defs>
<linearGradient id="paint0_linear_107_2" x1="160" y1="53.3333" x2="160" y2="266.667" gradientUnits="userSpaceOnUse">
<stop stop-color="white"/>
<stop offset="1" stop-color="#EAEAEA"/>
</linearGradient>
</defs>
</svg>
