<svg width="222" height="218" viewBox="0 0 222 218" fill="none" xmlns="http://www.w3.org/2000/svg">
<path fill-rule="evenodd" clip-rule="evenodd" d="M111.227 0C49.5859 0 0 49.9615 0 111.732C0 161.24 31.8442 203.026 75.971 217.787C81.43 218.922 83.4772 215.289 83.4772 212.337C83.4772 209.838 83.2497 200.755 83.2497 191.671C52.3154 198.257 45.9466 178.272 45.9466 178.272C40.9425 165.327 33.6638 161.921 33.6638 161.921C23.6557 155.108 34.3462 155.108 34.3462 155.108C45.4916 155.789 51.4056 166.69 51.4056 166.69C61.4137 183.722 77.3358 178.953 83.7046 176.001C84.6145 168.734 87.5714 163.738 90.7558 161.012C66.1903 158.514 40.2601 148.749 40.2601 105.828C40.2601 93.5643 44.5818 83.572 51.633 75.8507C50.4957 73.1255 46.6289 61.5435 52.7703 46.328C52.7703 46.328 62.0961 43.3757 83.2497 57.91C92.348 55.4119 101.674 54.2764 111 54.2764C120.325 54.2764 129.879 55.639 138.75 57.91C159.903 43.3757 169.229 46.328 169.229 46.328C175.37 61.7706 171.503 73.1255 170.366 75.8507C177.645 83.572 181.739 93.5643 181.739 105.828C181.739 148.749 155.809 158.287 131.016 161.012C135.11 164.419 138.522 171.232 138.522 181.678C138.522 196.667 138.295 208.703 138.295 212.337C138.295 215.289 140.342 218.922 145.801 217.787C190.155 203.026 221.999 161.24 221.999 111.732C222.227 49.9615 172.413 0 111.227 0Z" fill="url(#paint0_linear_114_3)"/>
<defs>
<linearGradient id="paint0_linear_114_3" x1="111" y1="0" x2="111" y2="218" gradientUnits="userSpaceOnUse">
<stop stop-color="white"/>
<stop offset="1" stop-color="#999999"/>
</linearGradient>
</defs>
</svg>
