<svg width="44" height="40" viewBox="0 0 44 40" fill="none" xmlns="http://www.w3.org/2000/svg">
<path d="M13.9994 17.9995C16.2085 17.9995 17.9993 16.2087 17.9993 13.9996C17.9993 11.7905 16.2085 9.99969 13.9994 9.99969C11.7903 9.99969 9.99951 11.7905 9.99951 13.9996C9.99951 16.2087 11.7903 17.9995 13.9994 17.9995Z" stroke="white" stroke-width="3" stroke-linecap="round" stroke-linejoin="round"/>
<path d="M11.1211 37.9989C22.2607 13.7996 31.5204 9.55972 42 25.2593" stroke="white" stroke-width="3" stroke-linecap="round" stroke-linejoin="round"/>
<path d="M33.999 2H9.99976C5.58161 2 2 5.58161 2 9.99976V29.9991C2 34.4172 5.58161 37.9989 9.99976 37.9989H33.999C38.4171 37.9989 41.9988 34.4172 41.9988 29.9991V9.99976C41.9988 5.58161 38.4171 2 33.999 2Z" stroke="white" stroke-width="3" stroke-linecap="round" stroke-linejoin="round"/>
</svg>
