<svg width="1440" height="1024" viewBox="0 0 1440 1024" fill="none" xmlns="http://www.w3.org/2000/svg">
<g clip-path="url(#clip0_448_2)">
<rect width="1440" height="1024" fill="#F0F0F0"/>
<path d="M-345.637 705.968C-170.56 584.475 407.108 493.866 1317.16 1103.37C1338.35 1117.56 1358.87 1131.04 1378.74 1143.82L1641.74 575.908C1906.43 995.688 2212.61 1680.11 1378.74 1143.82L1206.91 1514.86L-344.941 931.327L-358.825 718.481L-345.637 705.968Z" fill="#D5D5D5"/>
<path d="M2330.76 337.923C2167.86 530.347 1535.36 810.741 308.545 392.929C279.988 383.204 252.409 374.091 225.781 365.571L99.1055 1095C-331.982 696.388 -891.53 8.08854 225.781 365.571L308.545 -111L2260.95 80.6349L2342 319.587L2330.76 337.923Z" fill="#E8E8E8"/>
<path d="M611.811 -615.023C683.851 -414.467 621.861 166.97 -202.419 888.265C-221.605 905.054 -239.931 921.388 -257.42 937.275L223.067 1338.3C-250.916 1485.32 -991.261 1603.92 -257.42 937.275L-571.346 675.265L393.951 -672.677L603.138 -631L611.811 -615.023Z" fill="#F4F4F4"/>
</g>
<defs>
<clipPath id="clip0_448_2">
<rect width="1440" height="1024" fill="white"/>
</clipPath>
</defs>
</svg>
