<svg width="45" height="33" viewBox="0 0 45 33" fill="none" xmlns="http://www.w3.org/2000/svg">
<path d="M31.6875 28.75V4.25H4.125V28.75H31.6875ZM34.75 8.84375L43.9375 4.25V28.75L34.75 24.1562V30.2812C34.75 30.6874 34.5887 31.0768 34.3015 31.364C34.0143 31.6512 33.6249 31.8125 33.2188 31.8125H2.59375C2.18764 31.8125 1.79816 31.6512 1.51099 31.364C1.22383 31.0768 1.0625 30.6874 1.0625 30.2812V2.71875C1.0625 2.31264 1.22383 1.92316 1.51099 1.63599C1.79816 1.34883 2.18764 1.1875 2.59375 1.1875H33.2188C33.6249 1.1875 34.0143 1.34883 34.3015 1.63599C34.5887 1.92316 34.75 2.31264 34.75 2.71875V8.84375ZM34.75 12.2676V20.7324L40.875 23.7949V9.20512L34.75 12.2676ZM7.1875 7.3125H16.375V10.375H7.1875V7.3125Z" fill="white" stroke="white" stroke-width="0.78125"/>
</svg>
