<svg width="819" height="837" viewBox="0 0 819 837" fill="none" xmlns="http://www.w3.org/2000/svg">
<g filter="url(#filter0_d_417_16)">
<path fill-rule="evenodd" clip-rule="evenodd" d="M399.873 0C291.275 0 277.657 0.460317 235.006 2.40635C192.444 4.34762 163.376 11.1079 137.941 20.9936C111.646 31.2111 89.346 44.8843 67.1143 67.1143C44.884 89.3459 31.2111 111.646 20.9936 137.941C11.1079 163.376 4.34763 192.445 2.40635 235.006C0.460317 277.657 0 291.275 0 399.876C0 508.473 0.460317 522.09 2.40635 564.743C4.34763 607.303 11.1079 636.373 20.9936 661.806C31.2111 688.103 44.884 710.403 67.1143 732.633C89.346 754.863 111.646 768.536 137.941 778.756C163.376 788.64 192.444 795.4 235.006 797.343C277.657 799.286 291.275 799.746 399.873 799.746C508.473 799.746 522.09 799.286 564.74 797.343C607.303 795.4 636.37 788.64 661.807 778.756C688.1 768.536 710.4 754.863 732.633 732.633C754.863 710.403 768.537 688.103 778.757 661.806C788.64 636.373 795.4 607.303 797.34 564.743C799.287 522.09 799.747 508.473 799.747 399.876C799.747 291.275 799.287 277.657 797.34 235.006C795.4 192.445 788.64 163.376 778.757 137.941C768.537 111.646 754.863 89.3459 732.633 67.1143C710.4 44.8843 688.1 31.2111 661.807 20.9936C636.37 11.1079 607.303 4.34762 564.74 2.40635C522.09 0.460317 508.473 0 399.873 0ZM266.583 399.876C266.583 473.49 326.259 533.166 399.873 533.166C473.49 533.166 533.167 473.49 533.167 399.876C533.167 326.259 473.49 266.583 399.873 266.583C326.259 266.583 266.583 326.259 266.583 399.876ZM194.533 399.876C194.533 286.467 286.467 194.533 399.873 194.533C513.28 194.533 605.213 286.467 605.213 399.876C605.213 513.28 513.28 605.213 399.873 605.213C286.467 605.213 194.533 513.28 194.533 399.876ZM613.327 234.405C639.83 234.405 661.313 212.922 661.313 186.421C661.313 159.919 639.83 138.435 613.327 138.435C586.827 138.435 565.343 159.919 565.343 186.421C565.343 212.922 586.827 234.405 613.327 234.405Z" fill="url(#paint0_linear_417_16)"/>
<path d="M235.029 2.90583L235.006 2.40635L235.029 2.90583C277.668 0.960318 291.277 0.5 399.873 0.5C508.471 0.5 522.079 0.960318 564.717 2.90583C607.233 4.84493 636.245 11.596 661.625 21.4597L661.807 20.9936L661.626 21.4597C687.859 31.6538 710.099 45.2903 732.28 67.4678C754.457 89.647 768.094 111.887 778.291 138.122C788.152 163.501 794.903 192.515 796.84 235.029L797.34 235.006L796.841 235.029C798.787 277.669 799.247 291.277 799.247 399.876C799.247 508.47 798.787 522.078 796.841 564.72C794.903 607.233 788.152 636.248 778.291 661.625C768.094 687.862 754.457 710.102 732.28 732.279C710.099 754.457 687.859 768.094 661.626 778.29C636.245 788.151 607.233 794.902 564.717 796.843C522.079 798.786 508.471 799.246 399.873 799.246C291.277 799.246 277.668 798.786 235.029 796.843C192.515 794.902 163.501 788.151 138.122 778.29C111.887 768.094 89.6471 754.457 67.4679 732.279C45.29 710.102 31.6538 687.862 21.4597 661.625L20.9936 661.806L21.4597 661.625C11.596 636.248 4.84495 607.233 2.90583 564.72C0.960318 522.078 0.5 508.47 0.5 399.876C0.5 291.277 0.960318 277.669 2.90583 235.029L2.40635 235.006L2.90583 235.029C4.84495 192.515 11.596 163.501 21.4597 138.122L20.9936 137.941L21.4597 138.122C31.6538 111.887 45.29 89.647 67.4679 67.4678C89.6471 45.2903 111.887 31.6539 138.122 21.4597L137.941 20.9936L138.122 21.4597C163.501 11.596 192.515 4.84493 235.029 2.90583ZM399.873 532.666C326.535 532.666 267.083 473.213 267.083 399.876C267.083 326.535 326.535 267.083 399.873 267.083C473.214 267.083 532.667 326.535 532.667 399.876C532.667 473.213 473.214 532.666 399.873 532.666ZM399.873 194.033C286.19 194.033 194.033 286.19 194.033 399.876C194.033 513.556 286.19 605.713 399.873 605.713C513.556 605.713 605.713 513.556 605.713 399.876C605.713 286.19 513.556 194.033 399.873 194.033ZM613.327 234.905C640.106 234.905 661.813 213.198 661.813 186.421C661.813 159.643 640.106 137.935 613.327 137.935C586.55 137.935 564.843 159.643 564.843 186.421C564.843 213.198 586.55 234.905 613.327 234.905Z" stroke="#E6E6E6"/>
</g>
<circle cx="400" cy="401" r="142" fill="url(#paint1_linear_417_16)"/>
<defs>
<filter id="filter0_d_417_16" x="0" y="0" width="818.747" height="836.746" filterUnits="userSpaceOnUse" color-interpolation-filters="sRGB">
<feFlood flood-opacity="0" result="BackgroundImageFix"/>
<feColorMatrix in="SourceAlpha" type="matrix" values="0 0 0 0 0 0 0 0 0 0 0 0 0 0 0 0 0 0 127 0" result="hardAlpha"/>
<feOffset dx="15" dy="33"/>
<feGaussianBlur stdDeviation="2"/>
<feComposite in2="hardAlpha" operator="out"/>
<feColorMatrix type="matrix" values="0 0 0 0 0 0 0 0 0 0 0 0 0 0 0 0 0 0 0.1 0"/>
<feBlend mode="normal" in2="BackgroundImageFix" result="effect1_dropShadow_417_16"/>
<feBlend mode="normal" in="SourceGraphic" in2="effect1_dropShadow_417_16" result="shape"/>
</filter>
<linearGradient id="paint0_linear_417_16" x1="399.873" y1="0" x2="399.873" y2="799.746" gradientUnits="userSpaceOnUse">
<stop stop-color="white"/>
<stop offset="1" stop-color="#DFDFDF"/>
</linearGradient>
<linearGradient id="paint1_linear_417_16" x1="400" y1="259" x2="400" y2="543" gradientUnits="userSpaceOnUse">
<stop stop-color="#C0C0C0"/>
<stop offset="1" stop-color="#D8D8D8"/>
</linearGradient>
</defs>
</svg>
