<svg width="819" height="839" viewBox="0 0 819 839" fill="none" xmlns="http://www.w3.org/2000/svg">
<g filter="url(#filter0_d_417_5)">
<path fill-rule="evenodd" clip-rule="evenodd" d="M800 800H640V520.039C640 443.239 606.12 400.391 545.36 400.391C479.24 400.391 440 445.039 440 520.039V800H280V280H440V338.477C440 338.477 490.2 250.391 603.32 250.391C716.48 250.391 800 319.444 800 462.324V800ZM97.6801 196.836C43.7201 196.836 0 152.758 0 98.3984C0 44.0784 43.7201 0 97.6801 0C151.6 0 195.32 44.0784 195.32 98.3984C195.36 152.758 151.6 196.836 97.6801 196.836ZM0 800H200V280H0V800Z" fill="url(#paint0_linear_417_5)"/>
<path d="M798.5 462.324V798.5H641.5V520.039C641.5 481.447 632.991 451.156 616.642 430.484C600.249 409.759 576.125 398.891 545.36 398.891C511.944 398.891 485.165 410.186 466.759 431.099C448.375 451.987 438.5 482.291 438.5 520.039V798.5H281.5V281.5H438.5V338.477V344.138L441.303 339.219L441.303 339.219L441.304 339.218L441.31 339.208L441.334 339.165C441.357 339.126 441.392 339.067 441.439 338.987C441.533 338.827 441.677 338.586 441.87 338.271C442.257 337.64 442.842 336.708 443.629 335.519C445.203 333.141 447.582 329.733 450.792 325.639C457.212 317.448 466.948 306.52 480.194 295.591C506.678 273.74 547.181 251.891 603.32 251.891C659.596 251.891 708.35 269.056 743.033 303.837C777.712 338.613 798.5 391.178 798.5 462.324ZM193.82 98.3984V98.3995C193.859 151.941 150.761 195.336 97.6801 195.336C44.5596 195.336 1.5 151.941 1.5 98.3984C1.5 44.8961 44.5592 1.5 97.6801 1.5C150.761 1.5 193.82 44.8957 193.82 98.3984ZM198.5 281.5V798.5H1.5V281.5H198.5Z" stroke="#616161" stroke-opacity="0.36" stroke-width="3"/>
</g>
<defs>
<filter id="filter0_d_417_5" x="0" y="0" width="818.1" height="838.1" filterUnits="userSpaceOnUse" color-interpolation-filters="sRGB">
<feFlood flood-opacity="0" result="BackgroundImageFix"/>
<feColorMatrix in="SourceAlpha" type="matrix" values="0 0 0 0 0 0 0 0 0 0 0 0 0 0 0 0 0 0 127 0" result="hardAlpha"/>
<feOffset dx="13" dy="33"/>
<feGaussianBlur stdDeviation="2.55"/>
<feComposite in2="hardAlpha" operator="out"/>
<feColorMatrix type="matrix" values="0 0 0 0 0 0 0 0 0 0 0 0 0 0 0 0 0 0 0.04 0"/>
<feBlend mode="normal" in2="BackgroundImageFix" result="effect1_dropShadow_417_5"/>
<feBlend mode="normal" in="SourceGraphic" in2="effect1_dropShadow_417_5" result="shape"/>
</filter>
<linearGradient id="paint0_linear_417_5" x1="400" y1="0" x2="400" y2="800" gradientUnits="userSpaceOnUse">
<stop stop-color="#D1D1D1"/>
<stop offset="1" stop-color="#E1E1E1"/>
</linearGradient>
</defs>
</svg>
