<svg width="39" height="39" viewBox="0 0 39 39" fill="none" xmlns="http://www.w3.org/2000/svg">
<path d="M0 36.8333V15.1667H10.8333V39H2.16667C1.59203 39 1.04093 38.7717 0.634602 38.3654C0.228273 37.9591 0 37.408 0 36.8333ZM39 2.16667C39 1.59203 38.7717 1.04093 38.3654 0.634602C37.9591 0.228273 37.408 0 36.8333 0H2.16667C1.59203 0 1.04093 0.228273 0.634602 0.634602C0.228273 1.04093 0 1.59203 0 2.16667V10.8333H39V2.16667ZM36.8333 39C37.408 39 37.9591 38.7717 38.3654 38.3654C38.7717 37.9591 39 37.408 39 36.8333V15.1667H15.1667V39H36.8333Z" fill="white"/>
</svg>
