<svg width="94" height="63" viewBox="0 0 94 63" fill="none" xmlns="http://www.w3.org/2000/svg">
<path d="M67.8889 21L81.3455 12.8831C85.4873 10.3847 87.5584 9.13547 89.2624 9.29518C90.7481 9.43441 92.1038 10.206 92.9869 11.4152C94 12.802 94 15.23 94 20.086V42.914C94 47.7697 94 50.1979 92.9869 51.5849C92.1038 52.794 90.7481 53.5657 89.2624 53.7049C87.5584 53.8645 85.4873 52.6155 81.3455 50.117L67.8889 42M16.7111 63H51.1778C57.0272 63 59.9522 63 62.1862 61.8555C64.1513 60.8491 65.7493 59.2426 66.7504 57.267C67.8889 55.0211 67.8889 52.0805 67.8889 46.2V16.8C67.8889 10.9195 67.8889 7.97916 66.7504 5.73311C65.7493 3.75737 64.1513 2.15108 62.1862 1.14445C59.9522 -3.79302e-07 57.0272 0 51.1778 0H16.7111C10.8617 0 7.93694 -3.79302e-07 5.70277 1.14445C3.73749 2.15108 2.1397 3.75737 1.13839 5.73311C-3.7857e-07 7.97916 0 10.9194 0 16.8V46.2C0 52.0805 -3.7857e-07 55.0211 1.13839 57.267C2.1397 59.2426 3.73749 60.8491 5.70277 61.8555C7.93694 63 10.8616 63 16.7111 63Z" fill="black"/>
</svg>
