<svg width="119" height="82" viewBox="0 0 119 82" fill="none" xmlns="http://www.w3.org/2000/svg">
<path fill-rule="evenodd" clip-rule="evenodd" d="M59.499 7.6881C51.306 7.6881 50.489 8.54167 46.2489 8.54167C42.7154 8.54167 32.1151 0 26.815 0C21.5149 0 15.3315 3.075 15.3315 11.9583V22.2083C15.3421 24.899 16.332 33.1466 20.206 30.9424C15.6259 36.2888 15.1631 42.523 15.2261 48.5582C13.9925 48.9103 12.7339 49.3071 11.5124 49.7193C7.72727 50.998 3.71298 52.6281 1.89952 53.7849C-0.0263419 55.0133 -0.579274 57.5514 0.664499 59.4533C1.90827 61.3557 4.47777 61.9018 6.40358 60.6734C7.26822 60.1219 10.3955 58.7628 14.1984 57.4787C14.6186 57.3366 15.0396 57.1983 15.4584 57.0643C15.7145 59.4358 16.3501 61.6006 17.2949 63.573L17.1643 63.6407C14.8966 64.8243 12.7924 66.1833 11.4508 67.0498C11.2186 67.1995 11.0093 67.3346 10.8259 67.4516C8.90003 68.6799 8.34711 71.2181 9.59088 73.1199C10.8346 75.0223 13.4041 75.5685 15.33 74.3401C15.5576 74.1947 15.8001 74.0383 16.0561 73.8732C17.414 72.998 19.1502 71.8785 21.043 70.8906C21.4869 70.6589 21.914 70.4489 22.3226 70.2598C31.8993 79.1289 49.0927 82 59.499 82C69.9049 82 87.0986 79.1289 96.6753 70.2598C97.0838 70.4489 97.5105 70.6589 97.9544 70.8906C99.8473 71.8785 101.584 72.998 102.941 73.8732C103.197 74.0383 103.44 74.1947 103.667 74.3401C105.593 75.5685 108.163 75.0223 109.407 73.1199C110.651 71.2181 110.098 68.6799 108.172 67.4516C107.988 67.3346 107.779 67.1995 107.547 67.0498C106.205 66.1833 104.101 64.8243 101.833 63.6407L101.703 63.573C102.648 61.6 103.283 59.4358 103.54 57.0638C103.959 57.1977 104.381 57.336 104.801 57.4787C108.604 58.7628 111.732 60.1219 112.597 60.6734C114.522 61.9018 117.092 61.3557 118.336 59.4533C119.579 57.5514 119.026 55.0133 117.101 53.7849C115.287 52.6281 111.273 50.998 107.487 49.7193C106.265 49.3066 105.006 48.9103 103.772 48.5577C103.835 42.5225 103.372 36.2888 98.7918 30.9424C102.666 33.1466 103.656 24.899 103.667 22.2083V11.9589C103.667 3.0756 97.4829 0.00060215 92.1828 0.00060215C86.8827 0.00060215 76.2826 8.54167 72.7492 8.54167C68.509 8.54167 67.6927 7.6881 59.499 7.6881ZM55.7598 57.9489C56.8811 57.5717 58.2045 57.4 59.499 57.4C60.7936 57.4 62.117 57.5717 63.2383 57.9489C63.7885 58.1336 64.4615 58.4255 65.0537 58.8968C65.6487 59.3696 66.4175 60.2459 66.4175 61.5C66.4175 62.7541 65.6487 63.6304 65.0537 64.1032C64.4615 64.5745 63.7885 64.8664 63.2383 65.0511C62.117 65.4283 60.7936 65.6 59.499 65.6C58.2045 65.6 56.8811 65.4283 55.7598 65.0511C55.2096 64.8664 54.5366 64.5745 53.9438 64.1032C53.3488 63.6304 52.5806 62.7541 52.5806 61.5C52.5806 60.2459 53.3488 59.3696 53.9438 58.8968C54.5366 58.4255 55.2096 58.1336 55.7598 57.9489ZM71.5094 41.0027C72.2649 39.7541 73.756 38.2667 75.9926 38.2667C78.2292 38.2667 79.7202 39.7541 80.4752 41.0027C81.2628 42.3049 81.638 43.8831 81.638 45.4417C81.638 47.0002 81.2628 48.5784 80.4752 49.8806C79.7202 51.1292 78.2292 52.6167 75.9926 52.6167C73.756 52.6167 72.2649 51.1292 71.5094 49.8806C70.7218 48.5784 70.3471 47.0002 70.3471 45.4417C70.3471 43.8831 70.7218 42.3049 71.5094 41.0027ZM38.5227 41.0027C39.2777 39.7541 40.7689 38.2667 43.0055 38.2667C45.2421 38.2667 46.7333 39.7541 47.4883 41.0027C48.2759 42.3049 48.651 43.8831 48.651 45.4417C48.651 47.0002 48.2759 48.5784 47.4883 49.8806C46.7333 51.1292 45.2421 52.6167 43.0055 52.6167C40.7689 52.6167 39.2777 51.1292 38.5227 49.8806C37.7351 48.5784 37.36 47.0002 37.36 45.4417C37.36 43.8831 37.7351 42.3049 38.5227 41.0027Z" fill="black"/>
</svg>
