<svg width="88" height="67" viewBox="0 0 88 67" fill="none" xmlns="http://www.w3.org/2000/svg">
<path d="M88 15.8059V60.2086C87.9952 62.0083 87.2762 63.7329 86.0003 65.0055C84.7244 66.2781 82.9953 66.9952 81.1908 67H6.80916C5.00475 66.9952 3.27562 66.2781 1.9997 65.0055C0.72378 63.7329 0.00483544 62.0083 0 60.2086V15.8059C0.00483544 14.0062 0.72378 12.2816 1.9997 11.009C3.27562 9.73643 5.00475 9.01937 6.80916 9.01455H24.5313V6.79137C24.5361 4.99167 25.2551 3.26706 26.531 1.99447C27.8069 0.721889 29.536 0.0048228 31.3405 0H56.6595C58.464 0.0048228 60.1931 0.721889 61.469 1.99447C62.7449 3.26706 63.4639 4.99167 63.4687 6.79137V9.01455H81.1908C82.9953 9.01937 84.7244 9.73643 86.0003 11.009C87.2762 12.2816 87.9952 14.0062 88 15.8059ZM64.8611 38.0073C64.8611 33.8921 63.6376 29.8694 61.3453 26.4478C59.0531 23.0262 55.795 20.3593 51.9832 18.7845C48.1713 17.2097 43.9769 16.7977 39.9302 17.6005C35.8836 18.4033 32.1665 20.385 29.249 23.2948C26.3315 26.2047 24.3447 29.912 23.5398 33.9481C22.7348 37.9842 23.148 42.1677 24.7269 45.9696C26.3058 49.7715 28.9796 53.021 32.4102 55.3073C35.8408 57.5935 39.8741 58.8138 44 58.8138C49.5327 58.8138 54.8388 56.6217 58.751 52.7197C62.6632 48.8177 64.8611 43.5255 64.8611 38.0073ZM53.9359 28.0913C56.2361 30.3828 57.6685 33.3989 57.9889 36.6258C58.3094 39.8526 57.4981 43.0904 55.6934 45.7875C53.8886 48.4846 51.202 50.474 48.0914 51.4169C44.9807 52.3597 41.6386 52.1976 38.6343 50.9582C35.6301 49.7188 33.1497 47.4787 31.6158 44.6197C30.082 41.7607 29.5895 38.4596 30.2224 35.2791C30.8552 32.0985 32.5743 29.2352 35.0865 27.1771C37.5988 25.1189 40.7489 23.9933 44 23.9921C45.846 23.9872 47.6747 24.3475 49.3802 25.0521C51.0857 25.7568 52.6341 26.7919 53.9359 28.0974V28.0913ZM50.0092 8.22273C50.008 8.89519 50.2068 9.5529 50.5805 10.1126C50.9542 10.6723 51.486 11.1089 52.1085 11.3671C52.7311 11.6253 53.4164 11.6934 54.0778 11.563C54.7393 11.4325 55.347 11.1093 55.8242 10.6342C56.3014 10.1592 56.6265 9.55358 56.7585 8.89412C56.8905 8.23467 56.8234 7.55098 56.5656 6.92959C56.3079 6.3082 55.8711 5.77703 55.3106 5.4033C54.7501 5.02958 54.091 4.83009 53.4168 4.83009C52.5141 4.83009 51.6483 5.18733 51.0094 5.8234C50.3705 6.45947 50.0108 7.32238 50.0092 8.22273Z" fill="black"/>
</svg>
